
<svg version="1.0" xmlns="http://www.w3.org/2000/svg"
 width="1080.000000pt" height="1350.000000pt" viewBox="0 0 1080.000000 1350.000000"
 preserveAspectRatio="xMidYMid meet">

<g transform="translate(0.000000,1350.000000) scale(0.100000,-0.100000)"
fill="#000000" stroke="none">
<path d="M6821 11917 c-5 -12 -55 -160 -111 -327 -56 -168 -104 -312 -107
-320 -46 -121 -71 -206 -63 -220 5 -9 33 -24 62 -33 88 -27 151 -48 200 -68
26 -10 56 -19 67 -19 12 0 38 -9 58 -20 20 -10 57 -22 82 -25 25 -3 65 -11 88
-17 44 -11 119 1 174 29 58 28 119 138 119 214 0 54 -34 131 -71 158 -37 27
-37 38 0 46 16 3 35 13 42 21 6 8 17 14 25 14 36 0 94 118 94 192 0 64 -27
115 -90 170 -50 44 -161 98 -200 98 -10 0 -22 4 -25 10 -3 5 -32 17 -63 25
-31 9 -66 20 -77 25 -11 5 -60 22 -108 39 l-88 30 -8 -22z m157 -138 c26 -6
65 -20 88 -30 22 -11 48 -19 57 -19 19 0 152 -62 179 -83 10 -8 27 -34 38 -59
19 -43 19 -49 5 -89 -40 -112 -125 -136 -285 -77 -47 16 -112 38 -145 48 -33
9 -68 20 -77 24 -20 9 -23 37 -8 64 10 16 16 35 62 170 11 34 25 62 30 62 5 0
30 -5 56 -11z m-81 -410 c20 -10 45 -19 54 -19 9 0 36 -9 60 -20 24 -11 55
-20 67 -20 13 0 35 -9 49 -20 14 -11 31 -20 38 -20 7 0 31 -20 54 -45 37 -40
41 -50 41 -96 0 -59 -22 -102 -70 -137 -55 -41 -141 -24 -443 87 -52 19 -66
29 -61 40 3 9 19 57 36 106 61 186 56 177 99 170 21 -4 55 -15 76 -26z"/>
<path d="M5353 11860 c-59 -12 -94 -33 -136 -79 -20 -23 -39 -41 -41 -41 -3 0
-8 25 -11 55 l-7 56 -47 -3 -46 -3 2 -205 c1 -113 7 -243 12 -290 6 -47 13
-113 17 -147 l6 -63 60 0 61 0 -7 43 c-12 79 -24 354 -17 393 17 91 61 139
156 171 l76 25 -3 46 c-3 52 -8 55 -75 42z"/>
<path d="M4481 11760 c-25 -5 -49 -14 -55 -20 -5 -5 -17 -10 -25 -10 -26 0
-101 -57 -136 -102 -42 -55 -75 -148 -75 -214 0 -57 29 -159 59 -208 26 -40
86 -97 136 -127 37 -22 50 -24 175 -24 129 1 137 2 189 29 65 35 141 102 141
126 0 40 -72 70 -93 39 -21 -29 -82 -67 -129 -80 -24 -7 -47 -16 -53 -21 -26
-23 -149 10 -213 58 -30 24 -62 71 -62 93 0 16 89 51 129 51 20 0 61 7 91 16
30 8 86 20 124 25 38 5 83 16 100 24 17 8 47 15 66 17 30 3 35 7 38 32 7 57
-52 166 -123 229 -61 54 -194 85 -284 67z m184 -130 c47 -29 82 -67 94 -102
13 -36 1 -44 -78 -52 -36 -4 -83 -14 -105 -22 -23 -8 -75 -19 -116 -25 -41 -6
-87 -16 -101 -23 -41 -20 -53 -6 -46 53 11 90 78 171 161 192 55 14 151 3 191
-21z"/>
<path d="M3660 11507 c-94 -32 -166 -96 -210 -185 l-19 -37 -14 35 c-8 19 -17
43 -21 53 -6 18 -8 18 -42 -2 -19 -12 -41 -21 -49 -21 -22 0 -26 -16 -10 -47
8 -15 60 -136 115 -268 56 -132 107 -253 115 -270 37 -83 55 -126 80 -189 43
-112 46 -116 72 -116 30 0 93 26 93 39 0 5 -14 40 -30 78 -17 37 -37 83 -45
101 -8 18 -21 47 -29 65 -9 17 -18 44 -22 59 l-6 27 46 -15 c64 -22 166 -15
231 15 78 36 154 107 184 171 23 48 26 68 25 152 0 93 -2 102 -39 173 -42 82
-100 140 -176 175 -51 23 -190 27 -249 7z m177 -108 c82 -30 124 -81 163 -194
15 -45 16 -56 3 -104 -27 -105 -77 -160 -175 -190 -68 -20 -68 -20 -130 -1
-77 24 -130 72 -164 148 -31 70 -32 156 -4 213 27 53 91 111 137 126 48 15
134 16 170 2z"/>
<path d="M5922 11275 c-16 -14 -33 -36 -36 -50 -20 -81 98 -135 151 -69 32 40
30 79 -6 115 -36 36 -70 37 -109 4z"/>
<path d="M7670 11238 l0 -54 69 -2 c110 -3 231 -69 261 -143 16 -37 8 -120
-14 -153 l-17 -26 -37 20 c-20 12 -55 32 -77 45 -117 70 -165 87 -244 88 -42
1 -86 -4 -98 -11 -36 -20 -83 -89 -91 -134 -23 -129 61 -234 230 -289 54 -17
69 -18 106 -8 49 13 58 9 43 -20 -23 -42 13 -91 67 -91 11 0 43 46 96 138 43
75 96 166 117 202 59 101 72 206 33 282 -20 39 -74 98 -89 98 -7 0 -18 6 -24
14 -35 42 -162 86 -268 93 l-63 5 0 -54z m118 -375 c68 -38 126 -73 129 -80 3
-6 -7 -32 -22 -57 -20 -34 -37 -49 -71 -62 -80 -30 -183 -4 -250 63 -58 57
-57 112 1 170 22 22 43 33 61 33 16 0 83 -30 152 -67z"/>
<path d="M2902 11090 c-36 -8 -65 -20 -118 -49 -78 -43 -123 -90 -164 -171
-20 -38 -23 -60 -23 -145 0 -92 2 -105 31 -161 42 -82 136 -169 201 -184 115
-28 122 -28 196 -10 196 48 313 192 303 374 -7 132 -95 265 -212 320 -58 27
-151 38 -214 26z m187 -148 c51 -37 72 -63 100 -124 42 -93 18 -224 -52 -279
-60 -47 -125 -79 -160 -79 -91 0 -221 93 -248 179 -6 20 -15 40 -20 46 -24 25
5 144 49 200 28 35 93 82 123 88 13 3 56 4 95 2 61 -3 78 -8 113 -33z"/>
<path d="M2080 10859 c-55 -44 -60 -49 -60 -61 0 -14 66 -91 210 -248 48 -52
121 -135 163 -185 90 -108 243 -275 270 -294 17 -12 23 -9 57 24 l39 38 -26
31 c-14 17 -51 58 -82 92 -31 33 -92 103 -136 154 -44 52 -115 132 -158 178
-65 70 -159 179 -237 273 -14 17 -16 17 -40 -2z"/>
<path d="M8415 10789 c-117 -16 -218 -94 -275 -214 -60 -125 -44 -247 47 -367
50 -65 103 -104 186 -136 70 -26 107 -28 153 -6 39 19 39 19 19 68 l-15 36
-64 0 c-185 0 -296 189 -210 360 23 47 54 80 114 121 29 20 47 24 110 24 65 0
82 -4 123 -29 60 -36 93 -79 121 -158 19 -55 25 -63 55 -71 51 -13 61 -5 61
54 0 102 -99 232 -220 287 -64 29 -134 40 -205 31z"/>
<path d="M9259 10497 c-20 -17 -89 -77 -154 -132 -65 -55 -157 -134 -205 -175
-48 -41 -129 -111 -181 -154 -52 -44 -107 -92 -123 -108 -15 -15 -32 -28 -37
-28 -14 0 15 -52 45 -79 l25 -24 48 41 c26 22 57 49 67 61 18 20 26 21 105 16
123 -9 131 -11 131 -40 0 -13 -4 -35 -10 -49 -5 -14 -16 -65 -25 -113 -8 -49
-19 -108 -24 -133 -18 -82 -14 -108 27 -160 20 -27 41 -48 46 -47 5 2 26 91
47 198 21 106 44 219 52 249 l13 55 120 -3 c65 -2 154 -10 197 -19 43 -8 81
-13 84 -9 6 5 -45 74 -73 97 -9 7 -49 17 -88 21 -39 4 -91 12 -116 17 -25 6
-101 13 -170 17 -72 4 -133 12 -143 19 -17 12 -14 17 35 58 29 25 91 78 138
118 47 40 94 80 105 90 68 60 143 123 163 136 12 9 22 19 22 24 0 11 -70 89
-79 89 -3 0 -22 -15 -42 -33z"/>
<path d="M1904 10267 c-127 -68 -204 -194 -204 -333 0 -35 5 -66 10 -69 6 -3
10 -16 10 -28 1 -58 116 -186 205 -228 77 -37 197 -41 260 -9 22 11 43 20 49
20 16 0 118 93 152 139 37 51 77 166 72 208 -3 25 -7 28 -44 31 -49 4 -57 -5
-74 -83 -9 -42 -24 -75 -54 -112 -22 -29 -44 -53 -48 -53 -3 0 -21 -12 -38
-26 -29 -25 -38 -27 -127 -27 -82 0 -98 3 -110 19 -18 25 -9 47 46 102 58 58
311 353 311 363 0 10 -59 53 -115 83 -45 23 -60 26 -155 26 -89 -1 -111 -4
-146 -23z m248 -103 l29 -15 -23 -27 c-118 -139 -258 -300 -271 -311 -38 -31
-83 73 -74 170 9 102 74 176 180 203 55 14 105 8 159 -20z"/>
<path d="M1461 9759 c-11 -18 -16 -40 -13 -52 5 -19 37 -73 52 -87 3 -3 31
-43 61 -90 31 -47 95 -139 143 -205 l87 -120 -65 -3 c-36 -2 -74 2 -85 8 -11
5 -66 15 -123 21 -57 6 -134 17 -173 24 -38 8 -95 17 -125 20 l-55 6 -28 -51
c-16 -28 -26 -54 -23 -57 3 -3 61 -12 128 -19 68 -7 146 -18 173 -23 28 -6 95
-15 150 -21 55 -5 138 -17 185 -24 124 -21 121 -22 157 36 38 60 42 47 -68
200 -44 61 -92 129 -106 152 -62 97 -227 316 -240 316 -7 0 -22 -14 -32 -31z"/>
<path d="M9409 9580 c-62 -11 -149 -61 -199 -116 -96 -104 -117 -240 -60 -377
48 -117 144 -214 226 -231 34 -8 46 2 63 47 10 25 8 29 -17 40 -36 16 -93 54
-114 76 -9 10 -29 43 -44 72 -24 46 -29 66 -28 129 0 83 13 117 62 163 l30 29
27 -49 c15 -26 43 -72 61 -100 19 -29 34 -56 34 -61 0 -4 16 -31 35 -61 19
-29 35 -54 35 -56 0 -10 75 -132 92 -152 l20 -21 32 22 c86 58 142 127 167
206 46 145 -41 342 -182 412 -60 30 -163 42 -240 28z m173 -113 c111 -45 171
-161 147 -281 -11 -53 -61 -126 -87 -126 -16 0 -234 380 -228 396 15 38 90 43
168 11z"/>
<path d="M1200 8973 c-14 -2 -34 -8 -45 -13 -11 -5 -37 -14 -57 -20 -44 -13
-130 -97 -160 -154 -24 -47 -48 -135 -48 -178 0 -17 9 -63 21 -102 19 -62 29
-78 85 -133 35 -35 72 -63 81 -63 9 0 24 -7 34 -16 40 -36 268 -36 308 0 10 9
23 16 29 16 23 0 113 105 142 165 17 33 35 92 42 130 10 62 9 79 -7 138 -10
37 -21 67 -24 67 -3 -1 -22 -9 -41 -19 l-35 -19 0 -99 c-1 -86 -4 -104 -27
-148 -32 -61 -80 -109 -130 -129 -38 -16 -143 -22 -151 -8 -5 6 46 148 77 217
8 17 31 73 51 125 20 52 46 117 57 143 10 27 17 51 14 54 -22 23 -169 53 -216
46z m87 -129 c5 -14 -13 -72 -48 -149 -4 -11 -29 -72 -55 -135 -25 -63 -49
-121 -53 -127 -10 -19 -65 19 -98 68 -25 38 -28 52 -28 124 1 72 4 85 31 125
16 25 51 60 78 78 41 27 57 32 107 32 45 0 61 -4 66 -16z"/>
<path d="M10016 8873 c-4 -4 -26 -13 -49 -19 -23 -7 -73 -24 -112 -38 -38 -15
-92 -34 -120 -42 -27 -9 -54 -20 -60 -24 -5 -4 -36 -15 -67 -24 -31 -9 -60
-21 -63 -26 -3 -6 -17 -10 -29 -10 -30 0 -89 -25 -105 -44 -19 -22 15 -110 38
-100 9 3 38 12 64 19 26 8 53 18 60 23 7 5 34 15 62 21 27 7 54 16 60 20 17
14 152 51 184 51 42 0 110 -28 144 -59 45 -41 70 -107 71 -181 1 -97 -31 -131
-172 -185 -37 -14 -89 -35 -117 -45 -27 -11 -73 -27 -102 -35 -29 -9 -55 -20
-58 -25 -3 -6 -17 -10 -31 -10 -24 0 -28 -8 -24 -45 3 -25 31 -75 43 -75 5 0
23 7 40 15 18 8 52 21 77 29 130 42 280 97 315 115 86 46 141 122 152 211 10
88 -63 265 -122 295 -42 21 -75 53 -69 68 3 8 18 17 35 21 34 6 38 30 14 76
-15 28 -43 39 -59 23z"/>
<path d="M810 8202 c-8 -5 -36 -13 -62 -16 -26 -4 -58 -16 -71 -27 -14 -10
-31 -19 -37 -19 -22 0 -134 -123 -162 -176 -14 -29 -34 -78 -43 -110 -16 -55
-23 -91 -60 -319 -8 -49 -17 -101 -21 -114 -8 -28 8 -41 51 -41 17 0 51 -7 77
-14 26 -8 80 -18 120 -21 40 -4 93 -13 118 -21 25 -8 83 -18 130 -23 47 -6
114 -17 150 -25 36 -9 86 -16 111 -16 26 0 66 -7 89 -15 80 -28 75 -37 115
195 8 47 19 108 24 135 18 91 13 246 -9 314 -35 111 -116 210 -214 262 -71 38
-272 71 -306 51z m146 -132 c135 -24 226 -107 274 -251 28 -81 26 -112 -27
-366 l-14 -73 -48 0 c-26 0 -70 7 -97 14 -27 8 -96 22 -154 31 -58 8 -139 22
-180 30 -41 8 -91 14 -110 15 -41 0 -115 24 -115 37 7 109 54 323 86 383 51
96 126 160 209 176 74 15 106 16 176 4z"/>
<path d="M9895 7944 c-75 -32 -137 -92 -175 -168 -26 -52 -30 -70 -30 -147 0
-115 25 -183 92 -248 26 -25 48 -49 48 -52 0 -3 -18 -11 -41 -18 -48 -14 -55
-28 -39 -76 12 -35 13 -36 53 -31 23 3 87 11 141 17 55 6 110 15 123 20 13 5
76 14 139 19 63 6 136 18 162 25 26 8 68 15 94 15 68 0 198 20 235 35 30 13
33 18 33 57 0 62 -7 68 -60 57 -25 -5 -101 -16 -170 -24 -69 -8 -133 -17 -142
-19 -23 -5 -23 -3 7 43 35 57 49 121 42 202 -11 131 -78 233 -189 290 -53 27
-66 29 -160 29 -87 -1 -112 -5 -163 -26z m284 -120 c25 -14 62 -46 81 -71 32
-43 35 -53 39 -129 2 -70 -1 -91 -18 -128 -71 -146 -309 -184 -416 -65 -76 84
-93 177 -51 271 26 59 50 85 116 122 38 22 58 26 124 26 65 0 86 -4 125 -26z"/>
<path d="M1105 6700 c-38 -5 -86 -13 -105 -19 -19 -5 -91 -14 -160 -20 -69 -6
-156 -17 -195 -26 -38 -8 -90 -15 -114 -15 -93 0 -221 -22 -230 -39 -9 -16 1
-96 12 -108 3 -3 34 2 69 10 35 9 105 18 156 21 52 3 99 9 105 14 7 5 19 7 29
3 17 -7 17 -9 -36 -102 -29 -52 -32 -144 -7 -225 24 -79 101 -184 148 -203 15
-6 39 -18 53 -26 18 -11 58 -15 139 -15 102 0 120 3 170 26 227 106 271 407
84 578 l-37 33 46 7 c51 8 64 28 50 81 -8 28 -12 30 -58 31 -27 1 -80 -2 -119
-6z m26 -189 c65 -46 94 -111 93 -205 0 -80 -13 -112 -67 -167 -57 -59 -95
-71 -200 -67 -79 3 -97 7 -129 30 -51 35 -84 77 -92 115 -4 18 -12 35 -17 38
-38 24 40 245 87 245 6 0 17 7 24 15 21 25 70 34 165 32 84 -3 93 -5 136 -36z"/>
<path d="M9755 6643 c-3 -21 -10 -56 -15 -78 -5 -22 -11 -67 -15 -100 -4 -33
-13 -92 -21 -132 -56 -288 66 -525 306 -596 185 -54 347 -18 471 104 80 78
132 187 150 314 8 56 38 247 54 340 l7 40 -64 13 c-34 7 -101 18 -148 23 -47
5 -114 16 -150 25 -36 8 -108 19 -161 24 -53 5 -108 14 -121 19 -14 5 -69 14
-124 20 -54 6 -113 14 -131 17 -30 4 -32 3 -38 -33z m220 -118 c27 -9 95 -19
150 -24 55 -5 112 -14 126 -19 15 -6 73 -16 130 -22 57 -6 121 -16 142 -22 37
-11 39 -13 34 -47 -24 -168 -37 -240 -46 -264 -6 -16 -11 -37 -11 -48 0 -18
-49 -97 -89 -143 -45 -52 -153 -96 -238 -96 -105 0 -217 43 -272 105 -106 121
-120 233 -65 512 8 40 14 75 14 78 0 10 76 4 125 -10z"/>
<path d="M1345 5876 c-42 -19 -123 -46 -170 -57 -22 -6 -50 -17 -62 -25 -12
-8 -33 -14 -46 -14 -12 0 -39 -9 -60 -19 -20 -10 -47 -21 -60 -25 -41 -10
-124 -99 -138 -147 -29 -103 -1 -238 66 -320 18 -22 37 -37 101 -80 l24 -16
-28 -12 c-15 -8 -34 -17 -42 -21 -33 -17 4 -119 38 -104 9 4 37 13 62 21 25 8
61 21 80 28 19 7 55 20 80 28 25 8 61 20 80 27 19 7 58 20 85 29 28 10 73 25
100 35 28 9 71 23 98 30 26 7 50 16 54 20 7 6 -11 72 -26 95 -8 12 -17 13 -53
4 -64 -17 -138 -42 -186 -64 -23 -10 -50 -19 -60 -19 -10 0 -35 -9 -57 -20
-100 -51 -243 4 -284 110 -8 19 -18 39 -23 45 -4 5 -8 32 -8 60 0 89 71 168
175 194 27 7 54 16 60 21 5 4 26 11 45 15 19 4 53 15 75 24 22 10 58 23 80 30
22 6 51 19 64 30 23 18 23 19 9 62 -16 48 -28 54 -73 35z"/>
<path d="M9650 5624 c-167 -79 -278 -343 -205 -485 17 -31 38 -36 80 -17 24
11 26 15 18 47 -39 171 60 344 210 365 52 8 87 1 87 -17 0 -14 -118 -335 -136
-369 -8 -14 -14 -32 -14 -39 0 -7 -9 -32 -21 -56 -25 -51 -21 -66 23 -90 25
-14 55 -18 128 -18 84 0 101 3 147 28 69 36 127 98 165 175 28 56 31 72 31
151 -1 113 -22 162 -105 244 -83 82 -145 107 -266 107 -73 0 -96 -4 -142 -26z
m331 -159 c54 -41 79 -97 79 -180 0 -60 -5 -77 -30 -117 -54 -86 -147 -131
-231 -113 -27 6 -30 10 -24 33 4 15 13 41 20 57 8 17 34 85 59 152 60 162 73
193 84 193 4 0 24 -11 43 -25z"/>
<path d="M1577 5031 c-26 -44 -21 -57 28 -81 51 -25 105 -83 136 -148 23 -47
30 -128 16 -193 -7 -33 -65 -109 -83 -109 -8 0 -141 222 -153 255 -2 5 -25 46
-50 90 -25 44 -53 92 -60 108 -30 57 -109 26 -184 -71 -39 -52 -77 -153 -77
-207 0 -118 129 -308 225 -331 17 -4 36 -12 43 -17 25 -20 142 -13 204 11 160
61 249 171 256 319 8 147 -85 315 -213 382 -53 28 -67 27 -88 -8z m-150 -281
c30 -52 58 -102 61 -110 3 -8 17 -33 31 -55 47 -74 70 -132 58 -144 -19 -19
-133 -13 -176 9 -54 27 -113 98 -133 159 -14 44 -14 58 -4 99 22 80 65 146 94
140 8 -2 39 -46 69 -98z"/>
<path d="M9166 4788 c-31 -54 -32 -72 -5 -106 11 -15 73 -101 137 -192 64 -91
149 -206 187 -256 39 -51 75 -100 81 -110 14 -23 30 -12 58 39 l18 35 -181
253 c-123 172 -177 255 -169 260 7 4 20 4 29 -1 9 -5 70 -14 135 -20 66 -6
139 -15 164 -21 65 -14 188 -28 242 -29 43 0 48 3 67 36 41 70 36 72 -199 93
-63 6 -140 15 -171 21 -31 5 -107 14 -170 20 -63 6 -133 13 -156 16 -40 6 -42
5 -67 -38z"/>
<path d="M1980 4458 c-26 -43 -25 -45 9 -63 65 -33 93 -101 66 -160 -15 -31
-104 -111 -175 -156 -14 -9 -38 -28 -53 -43 -15 -14 -31 -26 -34 -26 -3 0 -21
-14 -40 -31 -19 -16 -40 -28 -46 -26 -7 2 -36 33 -66 70 -29 37 -60 67 -68 67
-29 0 -53 -21 -53 -46 0 -23 66 -124 81 -124 4 0 9 -9 12 -20 4 -15 -7 -30
-43 -61 -27 -23 -51 -47 -54 -54 -2 -7 9 -31 25 -54 l30 -40 34 22 c18 12 47
32 63 45 l31 22 37 -44 36 -44 34 20 c39 23 43 47 13 74 -12 10 -25 28 -29 39
-9 24 5 55 25 55 7 0 24 9 37 20 12 11 64 51 113 90 190 147 225 189 225 267
-1 75 -78 189 -147 218 -45 19 -40 20 -63 -17z"/>
<path d="M8913 4304 c-65 -18 -129 -60 -183 -122 -66 -74 -89 -129 -92 -214
l-3 -73 46 -3 46 -3 7 56 c3 31 17 78 31 105 44 87 158 160 248 160 34 0 117
-32 117 -46 0 -3 -81 -103 -180 -221 -196 -234 -192 -226 -128 -275 143 -106
347 -83 469 54 86 97 115 255 66 363 -84 182 -260 269 -444 219z m339 -264
c15 -32 27 -72 27 -95 0 -58 -45 -141 -102 -189 -46 -38 -53 -41 -125 -45 -78
-3 -142 16 -142 44 0 7 15 27 33 46 44 47 230 268 240 286 16 26 42 9 69 -47z"/>
<path d="M2299 3973 c-111 -116 -231 -251 -251 -281 -10 -15 -25 -52 -34 -82
-14 -47 -14 -63 -4 -105 17 -67 32 -95 82 -149 61 -68 133 -106 199 -106 73 0
85 -9 59 -42 -11 -15 -20 -36 -20 -48 0 -26 38 -70 60 -69 8 1 46 35 84 78 39
42 111 119 160 171 50 53 124 133 164 179 l74 83 -33 34 c-18 19 -41 34 -50
34 -10 0 -55 -41 -101 -91 -133 -145 -150 -163 -202 -205 -48 -38 -52 -39
-125 -39 -79 0 -96 7 -170 70 -29 25 -61 96 -61 136 0 45 36 107 104 179 136
146 226 249 226 261 0 15 -59 69 -75 69 -6 0 -45 -35 -86 -77z"/>
<path d="M8377 3810 c-22 -19 -37 -41 -37 -54 1 -12 33 -55 83 -107 45 -48
111 -120 147 -160 35 -41 97 -108 136 -149 39 -41 86 -93 105 -115 90 -105
174 -185 194 -185 28 0 80 54 69 72 -4 7 -67 77 -138 156 -72 78 -164 179
-205 225 -40 45 -117 129 -171 187 -53 58 -108 118 -122 134 l-24 29 -37 -33z"/>
<path d="M8030 3508 c-30 -11 -62 -26 -71 -34 -8 -8 -20 -14 -26 -14 -19 0
-126 -123 -147 -170 -16 -35 -20 -65 -20 -135 0 -85 2 -94 38 -163 45 -84 95
-131 183 -173 171 -80 390 8 485 196 28 53 31 70 31 145 0 110 -31 179 -118
265 -49 49 -74 65 -126 83 -79 27 -153 27 -229 0z m187 -110 c73 -42 109 -77
137 -132 25 -50 28 -64 25 -135 -4 -71 -7 -83 -35 -118 -17 -21 -53 -53 -79
-72 -44 -32 -53 -35 -124 -35 -68 -1 -81 2 -122 29 -101 65 -154 182 -130 288
13 58 70 139 111 157 14 6 36 17 50 25 38 22 122 19 167 -7z"/>
<path d="M7363 3405 c-41 -18 -42 -36 -4 -117 72 -159 104 -239 97 -245 -4 -4
-21 0 -37 10 -43 24 -161 23 -214 -3 -22 -11 -45 -19 -51 -20 -6 0 -38 -25
-71 -55 -71 -64 -103 -129 -111 -222 -5 -63 9 -139 33 -178 6 -11 15 -32 18
-46 7 -29 66 -92 124 -132 78 -54 237 -59 343 -10 61 28 131 97 158 155 9 21
21 36 26 35 5 -2 15 -21 23 -42 7 -21 15 -40 17 -42 6 -6 56 20 56 29 0 4 9 8
19 8 33 0 32 16 -5 97 -20 43 -74 166 -121 273 -47 107 -99 224 -115 260 -37
81 -50 112 -78 175 -32 75 -35 80 -56 82 -10 2 -34 -4 -51 -12z m59 -446 c47
-13 134 -97 143 -138 4 -17 11 -33 16 -36 17 -11 10 -143 -10 -183 -28 -53
-88 -105 -150 -130 -70 -29 -89 -28 -165 7 -188 85 -222 335 -61 448 57 40
152 54 227 32z"/>
<path d="M2943 3383 c-138 -56 -233 -199 -233 -349 0 -195 197 -374 397 -361
37 2 89 12 114 21 66 25 149 102 189 178 33 60 34 68 34 163 0 129 -24 186
-113 267 -115 104 -260 134 -388 81z m260 -119 c62 -34 94 -72 117 -138 25
-74 25 -88 -1 -156 -42 -111 -143 -190 -243 -190 -58 0 -152 45 -191 92 -98
116 -63 289 79 391 59 42 165 43 239 1z"/>
<path d="M3836 2963 c-89 -210 -141 -317 -175 -355 -44 -50 -115 -67 -207 -49
-36 8 -67 12 -69 9 -2 -2 -13 -24 -24 -48 l-20 -45 27 -12 c39 -17 191 -16
222 2 14 8 28 14 31 15 8 0 -14 -66 -24 -76 -16 -17 -4 -32 45 -53 53 -23 67
-19 68 20 0 8 4 19 9 25 7 7 112 246 217 494 8 19 19 43 24 52 17 31 11 43
-37 63 -26 11 -50 21 -53 23 -3 1 -18 -28 -34 -65z"/>
<path d="M6420 2798 c-69 -22 -105 -43 -158 -92 -54 -51 -58 -64 -26 -97 35
-36 43 -36 80 2 16 17 49 45 74 61 42 29 51 31 140 32 86 1 99 -1 135 -25 49
-33 81 -66 93 -100 8 -21 7 -28 -9 -37 -10 -7 -29 -12 -42 -12 -12 0 -47 -7
-77 -16 -30 -8 -89 -21 -131 -28 -42 -8 -84 -19 -95 -24 -10 -6 -54 -16 -96
-23 -86 -13 -103 -25 -95 -67 18 -90 93 -191 176 -240 42 -24 53 -26 160 -26
108 1 120 3 171 30 68 35 129 96 161 160 21 42 24 63 24 149 0 82 -5 111 -24
159 -68 170 -273 256 -461 194z m370 -392 c0 -44 -6 -62 -32 -102 -43 -62
-114 -105 -189 -111 -49 -5 -63 -2 -105 22 -54 31 -88 64 -111 109 -16 31 -7
46 30 46 10 0 27 5 37 10 11 6 58 17 106 25 47 9 96 20 107 27 11 6 43 14 71
18 91 13 86 16 86 -44z"/>
<path d="M4587 2753 c-9 -16 -20 -51 -26 -78 -23 -111 -61 -245 -70 -245 -22
0 -150 29 -166 37 -11 6 -40 14 -65 18 -25 4 -71 16 -102 26 -71 24 -124 25
-132 3 -3 -9 -6 -30 -6 -48 0 -29 4 -34 38 -44 20 -6 57 -14 82 -18 25 -4 50
-10 55 -14 6 -5 39 -14 75 -20 36 -7 79 -18 95 -25 17 -7 45 -16 63 -20 31 -6
34 -10 29 -39 -2 -17 -16 -76 -32 -131 -15 -55 -30 -113 -34 -130 -5 -21 -13
-30 -27 -29 -24 2 -133 29 -194 49 -25 8 -63 17 -85 20 -22 4 -54 13 -71 21
-17 7 -57 17 -88 20 -65 8 -76 1 -76 -53 0 -39 15 -49 108 -68 72 -15 150 -36
250 -66 34 -10 76 -19 93 -19 16 0 40 -7 53 -15 34 -22 124 -32 130 -14 9 31
38 142 72 274 19 77 40 156 46 175 6 19 15 51 19 70 4 19 17 71 29 115 53 194
67 256 59 261 -5 3 -31 8 -58 11 -47 5 -50 4 -64 -24z"/>
<path d="M5941 2709 c-24 -5 -46 -11 -49 -14 -3 -3 0 -49 6 -103 15 -116 16
-341 2 -376 -5 -14 -27 -43 -50 -65 -33 -32 -51 -41 -106 -51 l-65 -12 3 -52
3 -51 51 1 c63 2 105 23 160 82 42 44 44 45 44 20 0 -14 3 -40 6 -57 6 -28 10
-31 45 -31 61 0 77 23 68 96 -5 32 -13 138 -19 234 -6 96 -15 199 -20 229 -6
30 -10 71 -10 91 0 55 -16 68 -69 59z"/>
<path d="M5221 2674 c-70 -90 50 -200 123 -113 31 37 33 77 5 113 -16 21 -29
26 -64 26 -35 0 -48 -5 -64 -26z"/>
</g>
</svg>
